<svg xmlns="http://www.w3.org/2000/svg" xmlns:xlink="http://www.w3.org/1999/xlink" width="500" zoomAndPan="magnify" viewBox="0 0 375 374.999991" height="500" preserveAspectRatio="xMidYMid meet" version="1.0"><defs><clipPath id="1b6ee42863"><path d="M 18.75 126 L 356.25 126 L 356.25 342.75 L 18.75 342.75 Z M 18.75 126 " clip-rule="nonzero"/></clipPath><clipPath id="969bb2dfd0"><path d="M 18.75 32.25 L 356.25 32.25 L 356.25 282 L 18.75 282 Z M 18.75 32.25 " clip-rule="nonzero"/></clipPath><clipPath id="a9f0f848d7"><path d="M 18.75 113 L 356.25 113 L 356.25 330 L 18.75 330 Z M 18.75 113 " clip-rule="nonzero"/></clipPath><clipPath id="4bf4143d70"><path d="M 18.75 120 L 356.25 120 L 356.25 336 L 18.75 336 Z M 18.75 120 " clip-rule="nonzero"/></clipPath><clipPath id="90f189a783"><path d="M 18.75 32.25 L 356.25 32.25 L 356.25 90 L 18.75 90 Z M 18.75 32.25 " clip-rule="nonzero"/></clipPath></defs><g clip-path="url(#1b6ee42863)"><path fill="#000000" d="M 35.625 126.75 L 339.375 126.75 C 348.824219 126.75 356.25 134.175781 356.25 143.625 L 356.25 325.875 C 356.25 335.324219 348.824219 342.75 339.375 342.75 L 35.625 342.75 C 26.175781 342.75 18.75 335.324219 18.75 325.875 L 18.75 143.625 C 18.75 134.175781 26.175781 126.75 35.625 126.75 Z M 35.625 126.75 " fill-opacity="0.2" fill-rule="nonzero"/></g><g clip-path="url(#969bb2dfd0)"><path fill="#189243" d="M 18.75 265.125 C 18.75 274.574219 26.175781 282 35.625 282 L 339.375 282 C 348.824219 282 356.25 274.574219 356.25 265.125 L 356.25 82.875 C 356.25 73.425781 348.824219 66 339.375 66 L 167.25 66 L 167.25 49.125 C 167.25 39.675781 159.824219 32.25 150.375 32.25 L 35.625 32.25 C 26.175781 32.25 18.75 39.675781 18.75 49.125 " fill-opacity="1" fill-rule="nonzero"/></g><g clip-path="url(#a9f0f848d7)"><path fill="#000000" d="M 35.625 113.25 L 339.375 113.25 C 348.824219 113.25 356.25 120.675781 356.25 130.125 L 356.25 312.375 C 356.25 321.824219 348.824219 329.25 339.375 329.25 L 35.625 329.25 C 26.175781 329.25 18.75 321.824219 18.75 312.375 L 18.75 130.125 C 18.75 120.675781 26.175781 113.25 35.625 113.25 Z M 35.625 113.25 " fill-opacity="0.2" fill-rule="nonzero"/></g><path fill="#e4ac94" d="M 55.875 86.25 L 319.125 86.25 C 328.574219 86.25 336 93.675781 336 103.125 L 336 204.375 C 336 213.824219 328.574219 221.25 319.125 221.25 L 55.875 221.25 C 46.425781 221.25 39 213.824219 39 204.375 L 39 103.125 C 39 93.675781 46.425781 86.25 55.875 86.25 Z M 55.875 86.25 " fill-opacity="1" fill-rule="nonzero"/><g clip-path="url(#4bf4143d70)"><path fill="#1ab12a" d="M 35.625 120 L 339.375 120 C 348.824219 120 356.25 127.425781 356.25 136.875 L 356.25 319.125 C 356.25 328.574219 348.824219 336 339.375 336 L 35.625 336 C 26.175781 336 18.75 328.574219 18.75 319.125 L 18.75 136.875 C 18.75 127.425781 26.175781 120 35.625 120 Z M 35.625 120 " fill-opacity="1" fill-rule="nonzero"/></g><g clip-path="url(#90f189a783)"><path fill="#ffffff" d="M 35.625 32.25 C 26.175781 32.25 18.75 39.675781 18.75 49.125 L 18.75 55.875 C 18.75 46.425781 26.175781 39 35.625 39 L 150.375 39 C 159.824219 39 167.25 46.425781 167.25 55.875 L 167.25 49.125 C 167.25 39.675781 159.824219 32.25 150.375 32.25 Z M 167.25 66 L 167.25 72.75 L 339.375 72.75 C 348.824219 72.75 356.25 80.175781 356.25 89.625 L 356.25 82.875 C 356.25 73.425781 348.824219 66 339.375 66 Z M 167.25 66 " fill-opacity="0.1" fill-rule="nonzero"/></g><path fill="#023e09" d="M 192.898438 257.699219 C 182.101562 262.425781 171.976562 262.425781 165.226562 262.425781 C 157.125 261.75 150.375 259.726562 147.675781 257.699219 C 145.648438 256.351562 143.625 257.023438 142.273438 259.050781 C 140.925781 261.074219 141.601562 263.101562 143.625 264.449219 C 148.351562 267.824219 156.449219 269.851562 164.550781 270.523438 C 165.898438 270.523438 167.25 270.523438 169.273438 270.523438 C 176.699219 270.523438 186.148438 269.851562 196.273438 265.125 C 198.300781 264.449219 198.976562 261.75 198.300781 259.726562 C 196.949219 257.699219 194.925781 257.023438 192.898438 257.699219 Z M 235.425781 252.300781 C 236.101562 219.226562 239.476562 155.773438 175.351562 161.175781 C 112.574219 166.574219 128.773438 232.726562 128.101562 255 C 127.425781 266.476562 123.375 281.324219 117.976562 296.175781 L 134.851562 296.175781 C 136.875 290.101562 137.550781 284.023438 138.226562 277.949219 C 139.574219 278.625 140.25 279.300781 141.601562 279.976562 C 143.625 281.324219 144.976562 282.675781 147 284.023438 C 151.050781 287.398438 155.773438 292.125 164.550781 292.125 C 165.226562 292.125 165.898438 292.125 166.574219 292.125 C 175.351562 292.125 182.101562 288.074219 186.824219 284.699219 C 189.523438 283.351562 191.550781 282 192.898438 281.324219 C 198.300781 279.300781 203.023438 276.601562 207.074219 273.226562 C 207.75 272.550781 208.425781 271.875 208.425781 271.199219 C 210.449219 278.625 213.148438 286.726562 216.523438 294.824219 L 252.976562 294.824219 C 244.199219 282 235.425781 268.5 235.425781 252.300781 Z M 134.175781 234.074219 C 133.5 223.273438 138.898438 213.824219 145.648438 213.824219 C 152.398438 213.148438 159.148438 221.925781 159.824219 232.726562 C 159.824219 233.398438 159.824219 234.074219 159.824219 234.75 C 157.800781 235.425781 155.773438 236.101562 153.75 236.773438 C 153.074219 230.699219 149.699219 225.976562 146.324219 226.648438 C 142.949219 227.324219 140.25 232.726562 140.925781 238.800781 C 140.925781 241.5 142.273438 244.199219 142.949219 245.550781 C 142.949219 245.550781 141.601562 246.226562 140.925781 246.898438 C 140.25 247.574219 139.574219 248.25 138.226562 248.925781 C 136.199219 244.199219 134.851562 239.476562 134.175781 234.074219 Z M 205.726562 260.398438 C 205.726562 266.476562 197.625 271.875 190.875 273.898438 C 188.175781 274.574219 185.476562 276.601562 182.773438 277.949219 C 178.050781 280.648438 173.324219 284.023438 166.574219 284.023438 C 165.898438 284.023438 165.898438 284.023438 165.226562 284.023438 C 159.148438 283.351562 155.773438 281.324219 152.398438 277.273438 C 150.375 275.25 148.351562 273.898438 145.648438 271.875 C 140.25 268.5 136.199219 264.449219 136.199219 261.074219 C 136.199219 259.050781 136.875 257.699219 138.226562 256.351562 C 141.601562 253.648438 144.300781 252.300781 145.648438 250.949219 C 147.675781 249.601562 147.675781 249.601562 148.351562 248.925781 C 148.351562 248.925781 149.023438 248.25 149.023438 248.25 C 152.398438 244.875 157.800781 240.148438 165.898438 240.148438 C 171.300781 240.148438 176.699219 242.175781 182.773438 246.226562 C 185.476562 248.25 188.175781 248.925781 190.875 250.273438 C 192.898438 250.949219 195.601562 251.625 198.976562 252.976562 C 202.351562 255 205.726562 257.023438 205.726562 260.398438 Z M 203.699219 246.898438 C 203.023438 246.898438 202.351562 246.226562 201.675781 246.226562 C 198.976562 244.875 196.273438 244.199219 194.25 243.523438 C 195.601562 241.5 196.273438 238.800781 196.273438 236.101562 C 196.273438 229.351562 192.898438 223.273438 188.175781 223.273438 C 183.449219 223.273438 180.074219 228.675781 180.074219 235.425781 C 180.074219 235.425781 180.074219 236.101562 180.074219 236.101562 C 177.375 234.75 174.675781 234.074219 171.976562 233.398438 C 171.976562 233.398438 171.976562 232.726562 171.976562 232.726562 C 171.976562 219.898438 179.398438 209.773438 189.523438 209.773438 C 198.976562 209.773438 207.75 219.226562 207.75 232.050781 C 208.425781 238.125 206.398438 242.851562 203.699219 246.898438 Z M 203.699219 246.898438 " fill-opacity="1" fill-rule="nonzero"/></svg>