<svg xmlns="http://www.w3.org/2000/svg" xmlns:xlink="http://www.w3.org/1999/xlink" width="500" zoomAndPan="magnify" viewBox="0 0 375 374.999991" height="500" preserveAspectRatio="xMidYMid meet" version="1.0"><defs><clipPath id="c818c6cd66"><path d="M 146 163 L 318.75 163 L 318.75 278 L 146 278 Z M 146 163 " clip-rule="nonzero"/></clipPath><clipPath id="4d7508a8a1"><path d="M 56.25 98 L 229 98 L 229 213 L 56.25 213 Z M 56.25 98 " clip-rule="nonzero"/></clipPath></defs><g clip-path="url(#c818c6cd66)"><path fill="#88b9e1" d="M 315.300781 214.375 L 258.140625 165.378906 C 257.546875 164.871094 256.894531 164.457031 256.183594 164.136719 C 255.472656 163.816406 254.730469 163.601562 253.957031 163.492188 C 253.183594 163.382812 252.410156 163.386719 251.636719 163.5 C 250.867188 163.613281 250.125 163.832031 249.414062 164.160156 C 248.707031 164.484375 248.058594 164.90625 247.46875 165.417969 C 246.878906 165.929688 246.375 166.515625 245.953125 167.171875 C 245.53125 167.828125 245.210938 168.53125 244.992188 169.28125 C 244.773438 170.03125 244.660156 170.796875 244.660156 171.578125 L 244.660156 196.074219 L 154.835938 196.074219 C 154.300781 196.074219 153.769531 196.125 153.242188 196.230469 C 152.714844 196.335938 152.207031 196.488281 151.710938 196.695312 C 151.214844 196.898438 150.742188 197.152344 150.296875 197.449219 C 149.851562 197.746094 149.441406 198.085938 149.058594 198.464844 C 148.679688 198.84375 148.34375 199.257812 148.042969 199.703125 C 147.746094 200.148438 147.496094 200.617188 147.289062 201.113281 C 147.085938 201.609375 146.929688 202.121094 146.824219 202.648438 C 146.722656 203.171875 146.667969 203.703125 146.671875 204.242188 L 146.671875 236.90625 C 146.667969 237.441406 146.722656 237.972656 146.824219 238.496094 C 146.929688 239.023438 147.085938 239.535156 147.289062 240.03125 C 147.496094 240.527344 147.746094 240.996094 148.042969 241.441406 C 148.34375 241.886719 148.679688 242.300781 149.058594 242.679688 C 149.441406 243.058594 149.851562 243.398438 150.296875 243.695312 C 150.742188 243.992188 151.214844 244.246094 151.710938 244.449219 C 152.207031 244.65625 152.714844 244.808594 153.242188 244.914062 C 153.769531 245.019531 154.300781 245.070312 154.835938 245.070312 L 244.660156 245.070312 L 244.660156 269.566406 C 244.660156 270.347656 244.769531 271.113281 244.988281 271.863281 C 245.210938 272.613281 245.527344 273.316406 245.949219 273.976562 C 246.371094 274.632812 246.875 275.21875 247.464844 275.730469 C 248.054688 276.242188 248.703125 276.660156 249.414062 276.988281 C 250.125 277.316406 250.863281 277.535156 251.636719 277.648438 C 252.410156 277.761719 253.183594 277.765625 253.957031 277.65625 C 254.730469 277.546875 255.472656 277.332031 256.183594 277.011719 C 256.894531 276.6875 257.546875 276.273438 258.140625 275.765625 L 315.300781 226.769531 C 315.75 226.386719 316.148438 225.960938 316.503906 225.488281 C 316.859375 225.019531 317.160156 224.519531 317.40625 223.984375 C 317.65625 223.449219 317.839844 222.894531 317.96875 222.320312 C 318.09375 221.742188 318.15625 221.160156 318.15625 220.574219 C 318.15625 219.984375 318.09375 219.402344 317.96875 218.828125 C 317.839844 218.25 317.65625 217.695312 317.40625 217.160156 C 317.160156 216.625 316.859375 216.125 316.503906 215.65625 C 316.148438 215.183594 315.75 214.757812 315.300781 214.375 Z M 315.300781 214.375 " fill-opacity="1" fill-rule="nonzero"/></g><g clip-path="url(#4d7508a8a1)"><path fill="#228b22" d="M 228.328125 171.578125 L 228.328125 138.914062 C 228.332031 138.375 228.277344 137.84375 228.175781 137.320312 C 228.070312 136.792969 227.914062 136.28125 227.710938 135.785156 C 227.503906 135.289062 227.253906 134.820312 226.957031 134.375 C 226.65625 133.929688 226.320312 133.515625 225.941406 133.136719 C 225.558594 132.757812 225.148438 132.417969 224.703125 132.121094 C 224.257812 131.824219 223.785156 131.570312 223.289062 131.367188 C 222.792969 131.160156 222.285156 131.007812 221.757812 130.902344 C 221.230469 130.796875 220.699219 130.746094 220.164062 130.746094 L 130.339844 130.746094 L 130.339844 106.25 C 130.339844 105.46875 130.226562 104.703125 130.007812 103.953125 C 129.789062 103.203125 129.46875 102.5 129.046875 101.84375 C 128.625 101.1875 128.121094 100.601562 127.53125 100.089844 C 126.941406 99.578125 126.292969 99.15625 125.585938 98.832031 C 124.875 98.503906 124.132812 98.285156 123.363281 98.171875 C 122.589844 98.058594 121.816406 98.054688 121.042969 98.164062 C 120.269531 98.273438 119.527344 98.488281 118.816406 98.808594 C 118.105469 99.128906 117.453125 99.542969 116.859375 100.050781 L 59.699219 149.046875 C 59.25 149.429688 58.851562 149.855469 58.496094 150.328125 C 58.140625 150.796875 57.839844 151.296875 57.59375 151.832031 C 57.34375 152.367188 57.160156 152.921875 57.03125 153.5 C 56.90625 154.074219 56.84375 154.65625 56.84375 155.246094 C 56.84375 155.832031 56.90625 156.414062 57.03125 156.992188 C 57.160156 157.566406 57.34375 158.121094 57.59375 158.65625 C 57.839844 159.191406 58.140625 159.691406 58.496094 160.164062 C 58.851562 160.632812 59.25 161.058594 59.699219 161.441406 L 116.859375 210.4375 C 117.453125 210.945312 118.105469 211.359375 118.816406 211.679688 C 119.527344 212 120.269531 212.214844 121.042969 212.324219 C 121.816406 212.433594 122.589844 212.429688 123.363281 212.316406 C 124.132812 212.203125 124.875 211.984375 125.585938 211.65625 C 126.292969 211.332031 126.941406 210.910156 127.53125 210.398438 C 128.121094 209.886719 128.625 209.300781 129.046875 208.644531 C 129.46875 207.988281 129.789062 207.285156 130.007812 206.535156 C 130.226562 205.785156 130.339844 205.019531 130.339844 204.242188 L 130.339844 179.742188 L 220.164062 179.742188 C 220.699219 179.742188 221.230469 179.691406 221.757812 179.585938 C 222.285156 179.480469 222.792969 179.328125 223.289062 179.121094 C 223.785156 178.917969 224.257812 178.664062 224.703125 178.367188 C 225.148438 178.070312 225.558594 177.730469 225.941406 177.351562 C 226.320312 176.972656 226.65625 176.558594 226.957031 176.113281 C 227.253906 175.667969 227.503906 175.199219 227.710938 174.703125 C 227.914062 174.207031 228.070312 173.695312 228.175781 173.167969 C 228.277344 172.644531 228.332031 172.113281 228.328125 171.578125 Z M 228.328125 171.578125 " fill-opacity="1" fill-rule="nonzero"/></g></svg>