<svg xmlns="http://www.w3.org/2000/svg" xmlns:xlink="http://www.w3.org/1999/xlink" width="500" zoomAndPan="magnify" viewBox="0 0 375 374.999991" height="500" preserveAspectRatio="xMidYMid meet" version="1.0"><defs><clipPath id="d86ac779b2"><path d="M 183 28 L 347.921875 28 L 347.921875 174 L 183 174 Z M 183 28 " clip-rule="nonzero"/></clipPath><clipPath id="27e9af3445"><path d="M 26.921875 55 L 157 55 L 157 174 L 26.921875 174 Z M 26.921875 55 " clip-rule="nonzero"/></clipPath><clipPath id="086f1eaf98"><path d="M 26.921875 200 L 157 200 L 157 320 L 26.921875 320 Z M 26.921875 200 " clip-rule="nonzero"/></clipPath><clipPath id="b1a21b4bb2"><path d="M 183 200 L 347.921875 200 L 347.921875 347 L 183 347 Z M 183 200 " clip-rule="nonzero"/></clipPath></defs><g clip-path="url(#d86ac779b2)"><path fill="#0072ff" d="M 195.847656 173.710938 L 335.617188 173.710938 C 336.425781 173.714844 337.226562 173.640625 338.019531 173.484375 C 338.816406 173.332031 339.585938 173.101562 340.335938 172.792969 C 341.082031 172.484375 341.792969 172.105469 342.46875 171.660156 C 343.140625 171.210938 343.765625 170.699219 344.335938 170.128906 C 344.910156 169.554688 345.417969 168.933594 345.867188 168.257812 C 346.316406 167.585938 346.695312 166.875 347.003906 166.125 C 347.308594 165.378906 347.539062 164.605469 347.695312 163.8125 C 347.851562 163.015625 347.925781 162.214844 347.921875 161.40625 L 347.921875 40.296875 C 347.921875 39.855469 347.898438 39.417969 347.851562 38.984375 C 347.804688 38.546875 347.734375 38.113281 347.640625 37.6875 C 347.546875 37.257812 347.429688 36.835938 347.289062 36.417969 C 347.152344 36.003906 346.992188 35.597656 346.808594 35.195312 C 346.625 34.796875 346.421875 34.410156 346.199219 34.035156 C 345.972656 33.65625 345.730469 33.292969 345.464844 32.941406 C 345.203125 32.589844 344.921875 32.257812 344.621094 31.9375 C 344.320312 31.617188 344.003906 31.3125 343.671875 31.027344 C 343.339844 30.738281 342.992188 30.472656 342.632812 30.222656 C 342.269531 29.972656 341.898438 29.746094 341.511719 29.535156 C 341.125 29.328125 340.730469 29.136719 340.324219 28.972656 C 339.917969 28.804688 339.503906 28.660156 339.085938 28.539062 C 338.664062 28.417969 338.234375 28.320312 337.804688 28.242188 C 337.371094 28.167969 336.9375 28.113281 336.5 28.085938 C 336.0625 28.054688 335.625 28.050781 335.183594 28.066406 C 334.746094 28.085938 334.3125 28.125 333.878906 28.191406 L 194.109375 48.589844 C 193.386719 48.691406 192.679688 48.859375 191.984375 49.089844 C 191.292969 49.320312 190.625 49.609375 189.984375 49.957031 C 189.34375 50.308594 188.742188 50.710938 188.171875 51.167969 C 187.605469 51.628906 187.082031 52.132812 186.601562 52.683594 C 186.125 53.234375 185.699219 53.824219 185.324219 54.453125 C 184.953125 55.078125 184.640625 55.734375 184.382812 56.417969 C 184.128906 57.101562 183.933594 57.800781 183.804688 58.519531 C 183.675781 59.238281 183.609375 59.960938 183.609375 60.691406 L 183.609375 161.40625 C 183.605469 162.210938 183.679688 163.011719 183.832031 163.804688 C 183.984375 164.59375 184.214844 165.363281 184.519531 166.109375 C 184.828125 166.855469 185.203125 167.566406 185.648438 168.238281 C 186.09375 168.910156 186.601562 169.53125 187.167969 170.101562 C 187.738281 170.675781 188.359375 171.1875 189.027344 171.636719 C 189.695312 172.085938 190.402344 172.464844 191.148438 172.773438 C 191.894531 173.082031 192.660156 173.316406 193.453125 173.476562 C 194.242188 173.632812 195.039062 173.710938 195.847656 173.710938 Z M 195.847656 173.710938 " fill-opacity="1" fill-rule="nonzero"/></g><g clip-path="url(#27e9af3445)"><path fill="#0072ff" d="M 142.882812 55.945312 L 37.621094 70.253906 C 36.886719 70.347656 36.167969 70.507812 35.460938 70.730469 C 34.757812 70.953125 34.078125 71.238281 33.421875 71.585938 C 32.769531 71.933594 32.152344 72.335938 31.570312 72.792969 C 30.992188 73.253906 30.457031 73.761719 29.96875 74.316406 C 29.480469 74.871094 29.042969 75.46875 28.664062 76.101562 C 28.28125 76.738281 27.960938 77.402344 27.703125 78.09375 C 27.441406 78.785156 27.246094 79.496094 27.113281 80.226562 C 26.984375 80.953125 26.917969 81.6875 26.921875 82.425781 L 26.921875 161.472656 C 26.921875 162.285156 27 163.089844 27.160156 163.886719 C 27.320312 164.683594 27.558594 165.453125 27.871094 166.203125 C 28.183594 166.953125 28.570312 167.664062 29.023438 168.335938 C 29.480469 169.007812 29.996094 169.628906 30.574219 170.199219 C 31.15625 170.769531 31.785156 171.273438 32.464844 171.71875 C 33.144531 172.164062 33.859375 172.535156 34.613281 172.839844 C 35.367188 173.140625 36.144531 173.363281 36.945312 173.511719 C 37.742188 173.65625 38.546875 173.726562 39.359375 173.710938 L 144.488281 173.710938 C 145.289062 173.710938 146.085938 173.632812 146.875 173.476562 C 147.664062 173.320312 148.429688 173.085938 149.171875 172.78125 C 149.914062 172.472656 150.617188 172.09375 151.285156 171.648438 C 151.953125 171.203125 152.574219 170.695312 153.140625 170.128906 C 153.707031 169.558594 154.214844 168.941406 154.664062 168.273438 C 155.109375 167.605469 155.484375 166.898438 155.792969 166.15625 C 156.101562 165.414062 156.332031 164.648438 156.488281 163.859375 C 156.648438 163.074219 156.726562 162.277344 156.726562 161.472656 L 156.726562 67.847656 C 156.71875 67.417969 156.6875 66.992188 156.632812 66.5625 C 156.582031 66.136719 156.503906 65.714844 156.40625 65.296875 C 156.308594 64.878906 156.191406 64.464844 156.050781 64.058594 C 155.910156 63.65625 155.746094 63.257812 155.5625 62.867188 C 155.378906 62.480469 155.179688 62.101562 154.957031 61.734375 C 154.734375 61.367188 154.492188 61.011719 154.230469 60.667969 C 153.972656 60.328125 153.695312 60 153.398438 59.6875 C 153.105469 59.375 152.792969 59.078125 152.46875 58.796875 C 152.144531 58.515625 151.804688 58.253906 151.449219 58.011719 C 151.097656 57.765625 150.730469 57.542969 150.355469 57.335938 C 149.976562 57.128906 149.589844 56.945312 149.191406 56.777344 C 148.796875 56.613281 148.390625 56.46875 147.980469 56.347656 C 147.566406 56.222656 147.152344 56.125 146.730469 56.046875 C 146.304688 55.964844 145.878906 55.910156 145.453125 55.875 C 145.023438 55.84375 144.59375 55.832031 144.164062 55.84375 C 143.734375 55.855469 143.308594 55.886719 142.882812 55.945312 Z M 142.882812 55.945312 " fill-opacity="1" fill-rule="nonzero"/></g><g clip-path="url(#086f1eaf98)"><path fill="#0072ff" d="M 37.6875 304.988281 L 142.816406 319.433594 C 143.246094 319.492188 143.675781 319.53125 144.109375 319.546875 C 144.546875 319.5625 144.980469 319.558594 145.410156 319.527344 C 145.84375 319.496094 146.277344 319.441406 146.703125 319.367188 C 147.128906 319.289062 147.554688 319.191406 147.96875 319.070312 C 148.386719 318.949219 148.796875 318.804688 149.199219 318.640625 C 149.601562 318.476562 149.992188 318.289062 150.375 318.085938 C 150.757812 317.878906 151.125 317.652344 151.484375 317.40625 C 151.84375 317.160156 152.1875 316.894531 152.515625 316.613281 C 152.84375 316.332031 153.160156 316.03125 153.457031 315.714844 C 153.753906 315.398438 154.035156 315.070312 154.296875 314.722656 C 154.5625 314.378906 154.804688 314.019531 155.03125 313.648438 C 155.253906 313.273438 155.457031 312.890625 155.640625 312.5 C 155.824219 312.105469 155.988281 311.703125 156.128906 311.292969 C 156.269531 310.882812 156.390625 310.464844 156.484375 310.042969 C 156.582031 309.617188 156.65625 309.191406 156.707031 308.757812 C 156.757812 308.328125 156.785156 307.894531 156.792969 307.460938 L 156.792969 212.765625 C 156.796875 211.957031 156.722656 211.15625 156.566406 210.359375 C 156.414062 209.566406 156.179688 208.796875 155.875 208.046875 C 155.566406 207.296875 155.1875 206.585938 154.738281 205.914062 C 154.289062 205.242188 153.78125 204.617188 153.207031 204.046875 C 152.636719 203.472656 152.011719 202.964844 151.339844 202.515625 C 150.664062 202.066406 149.953125 201.6875 149.207031 201.378906 C 148.457031 201.074219 147.6875 200.839844 146.890625 200.6875 C 146.097656 200.53125 145.296875 200.457031 144.488281 200.460938 L 39.359375 200.460938 C 38.542969 200.449219 37.738281 200.515625 36.933594 200.664062 C 36.132812 200.8125 35.355469 201.039062 34.597656 201.339844 C 33.84375 201.644531 33.125 202.019531 32.441406 202.46875 C 31.761719 202.914062 31.132812 203.425781 30.550781 203.996094 C 29.972656 204.570312 29.457031 205.195312 29 205.871094 C 28.546875 206.546875 28.164062 207.261719 27.851562 208.015625 C 27.539062 208.769531 27.304688 209.542969 27.148438 210.34375 C 26.992188 211.144531 26.917969 211.953125 26.921875 212.765625 L 26.921875 293.015625 C 26.929688 293.75 27.007812 294.476562 27.148438 295.199219 C 27.289062 295.917969 27.496094 296.621094 27.761719 297.304688 C 28.03125 297.988281 28.359375 298.640625 28.742188 299.265625 C 29.128906 299.890625 29.566406 300.476562 30.058594 301.023438 C 30.550781 301.566406 31.085938 302.066406 31.664062 302.515625 C 32.246094 302.964844 32.863281 303.359375 33.511719 303.695312 C 34.164062 304.035156 34.839844 304.3125 35.542969 304.53125 C 36.242188 304.746094 36.957031 304.898438 37.6875 304.988281 Z M 37.6875 304.988281 " fill-opacity="1" fill-rule="nonzero"/></g><g clip-path="url(#b1a21b4bb2)"><path fill="#0072ff" d="M 183.542969 314.148438 C 183.539062 314.882812 183.601562 315.613281 183.730469 316.335938 C 183.859375 317.0625 184.050781 317.765625 184.308594 318.457031 C 184.5625 319.144531 184.878906 319.804688 185.253906 320.4375 C 185.628906 321.070312 186.058594 321.664062 186.539062 322.21875 C 187.019531 322.773438 187.546875 323.28125 188.121094 323.742188 C 188.695312 324.203125 189.304688 324.605469 189.949219 324.957031 C 190.597656 325.308594 191.269531 325.597656 191.96875 325.824219 C 192.667969 326.054688 193.378906 326.21875 194.109375 326.320312 L 333.878906 346.382812 C 334.3125 346.449219 334.75 346.488281 335.191406 346.507812 C 335.628906 346.523438 336.070312 346.519531 336.507812 346.488281 C 336.945312 346.460938 337.382812 346.40625 337.816406 346.328125 C 338.25 346.253906 338.675781 346.152344 339.101562 346.03125 C 339.523438 345.90625 339.9375 345.761719 340.34375 345.59375 C 340.75 345.425781 341.148438 345.238281 341.535156 345.027344 C 341.921875 344.816406 342.296875 344.585938 342.65625 344.335938 C 343.019531 344.085938 343.367188 343.816406 343.699219 343.527344 C 344.03125 343.238281 344.347656 342.933594 344.644531 342.609375 C 344.945312 342.289062 345.226562 341.949219 345.492188 341.597656 C 345.753906 341.246094 345.996094 340.878906 346.222656 340.5 C 346.445312 340.121094 346.648438 339.730469 346.828125 339.332031 C 347.011719 338.929688 347.171875 338.519531 347.308594 338.101562 C 347.445312 337.683594 347.558594 337.261719 347.652344 336.832031 C 347.742188 336.398438 347.8125 335.964844 347.855469 335.527344 C 347.902344 335.089844 347.921875 334.652344 347.921875 334.210938 L 347.921875 212.765625 C 347.925781 211.960938 347.851562 211.160156 347.695312 210.371094 C 347.542969 209.578125 347.3125 208.808594 347.007812 208.0625 C 346.703125 207.316406 346.328125 206.605469 345.882812 205.933594 C 345.4375 205.261719 344.929688 204.640625 344.359375 204.070312 C 343.792969 203.496094 343.171875 202.988281 342.503906 202.539062 C 341.832031 202.089844 341.125 201.710938 340.382812 201.398438 C 339.636719 201.089844 338.871094 200.855469 338.078125 200.699219 C 337.289062 200.539062 336.488281 200.460938 335.683594 200.460938 L 195.847656 200.460938 C 195.042969 200.460938 194.246094 200.539062 193.460938 200.695312 C 192.671875 200.851562 191.90625 201.085938 191.164062 201.394531 C 190.421875 201.699219 189.714844 202.078125 189.046875 202.523438 C 188.378906 202.96875 187.761719 203.476562 187.195312 204.046875 C 186.625 204.613281 186.117188 205.230469 185.671875 205.902344 C 185.226562 206.570312 184.847656 207.273438 184.539062 208.015625 C 184.234375 208.757812 184 209.523438 183.84375 210.3125 C 183.6875 211.101562 183.609375 211.894531 183.609375 212.699219 Z M 183.542969 314.148438 " fill-opacity="1" fill-rule="nonzero"/></g></svg>